<svg xmlns:dc="http://purl.org/dc/elements/1.1/" xmlns:cc="http://creativecommons.org/ns#" xmlns:rdf="http://www.w3.org/1999/02/22-rdf-syntax-ns#" xmlns:svg="http://www.w3.org/2000/svg" xmlns="http://www.w3.org/2000/svg" xmlns:sodipodi="http://sodipodi.sourceforge.net/DTD/sodipodi-0.dtd" xmlns:inkscape="http://www.inkscape.org/namespaces/inkscape" viewBox="0 0 100 125" version="1.1" x="0px" y="0px"><g transform="translate(0,-952.3622)"><path style="color:#000000;font-style:normal;font-variant:normal;font-weight:normal;font-stretch:normal;font-size:medium;line-height:normal;font-family:sans-serif;text-indent:0;text-align:start;text-decoration:none;text-decoration-line:none;text-decoration-style:solid;text-decoration-color:#000000;letter-spacing:normal;word-spacing:normal;text-transform:none;direction:ltr;block-progression:tb;writing-mode:lr-tb;baseline-shift:baseline;text-anchor:start;white-space:normal;clip-rule:nonzero;display:inline;overflow:visible;visibility:visible;opacity:1;isolation:auto;mix-blend-mode:normal;color-interpolation:sRGB;color-interpolation-filters:linearRGB;solid-color:#000000;solid-opacity:1;fill:#000000;fill-opacity:1;fill-rule:nonzero;stroke:none;stroke-width:1.5;stroke-linecap:round;stroke-linejoin:round;stroke-miterlimit:4;stroke-dasharray:none;stroke-dashoffset:0;stroke-opacity:1;color-rendering:auto;image-rendering:auto;shape-rendering:auto;text-rendering:auto;enable-background:accumulate" d="m 70.908761,1001.5387 c -11.639446,0 -21.090028,9.4533 -21.090031,21.0939 3e-6,11.6406 9.450585,21.094 21.090031,21.094 11.639446,0 21.091981,-9.4534 21.091984,-21.094 -3e-6,-11.6406 -9.452538,-21.0939 -21.091984,-21.0939 z m 0,1.5 c 10.828691,0 19.591968,8.7639 19.591971,19.5939 -3e-6,10.83 -8.76328,19.594 -19.591971,19.594 -10.828691,0 -19.590015,-8.764 -19.590018,-19.594 3e-6,-10.83 8.761327,-19.5939 19.590018,-19.5939 z"/><path style="color:#000000;font-style:normal;font-variant:normal;font-weight:normal;font-stretch:normal;font-size:medium;line-height:normal;font-family:sans-serif;text-indent:0;text-align:start;text-decoration:none;text-decoration-line:none;text-decoration-style:solid;text-decoration-color:#000000;letter-spacing:normal;word-spacing:normal;text-transform:none;direction:ltr;block-progression:tb;writing-mode:lr-tb;baseline-shift:baseline;text-anchor:start;white-space:normal;clip-rule:nonzero;display:inline;overflow:visible;visibility:visible;opacity:1;isolation:auto;mix-blend-mode:normal;color-interpolation:sRGB;color-interpolation-filters:linearRGB;solid-color:#000000;solid-opacity:1;fill:#000000;fill-opacity:1;fill-rule:nonzero;stroke:none;stroke-width:1.5;stroke-linecap:round;stroke-linejoin:round;stroke-miterlimit:4;stroke-dasharray:none;stroke-dashoffset:0;stroke-opacity:1;color-rendering:auto;image-rendering:auto;shape-rendering:auto;text-rendering:auto;enable-background:accumulate" d="m 40.674118,961.00513 c -8.780401,-0.18555 -17.513926,3.24287 -23.884978,9.9532 -10.1936784,10.73654 -11.6855218,27.07888 -3.6055,39.48477 8.08003,12.4058 23.627063,17.6454 37.566739,12.6602 a 0.75008166,0.75008166 0 1 0 -0.50391,-1.4121 c -13.293262,4.7539 -28.101549,-0.2378 -35.806959,-12.0685 -7.7054017,-11.83063 -6.2835052,-27.39244 3.437531,-37.63115 9.721038,-10.23872 25.186665,-12.46286 37.398769,-5.37895 12.212101,7.0839 17.961887,21.61412 13.902467,35.137 a 0.75045399,0.75045399 0 1 0 1.437513,0.4316 c 4.256765,-14.18024 -1.780152,-29.43909 -14.586067,-36.86745 -4.802219,-2.78563 -10.087364,-4.1973 -15.355605,-4.30862 z"/><path style="" d="m 32.666861,981.82251 a 5.3081702,5.3087448 0 0 1 -5.30817,5.30875 5.3081702,5.3087448 0 0 1 -5.308171,-5.30875 5.3081702,5.3087448 0 0 1 5.308171,-5.30875 5.3081702,5.3087448 0 0 1 5.30817,5.30875 z" fill="#000000" stroke="none"/><path style="" d="m 57.918704,981.82251 a 5.3081702,5.3087448 0 0 1 -5.30817,5.30875 5.3081702,5.3087448 0 0 1 -5.30817,-5.30875 5.3081702,5.3087448 0 0 1 5.30817,-5.30875 5.3081702,5.3087448 0 0 1 5.30817,5.30875 z" fill="#000000" stroke="none"/><path style="color:#000000;font-style:normal;font-variant:normal;font-weight:normal;font-stretch:normal;font-size:medium;line-height:normal;font-family:sans-serif;text-indent:0;text-align:start;text-decoration:none;text-decoration-line:none;text-decoration-style:solid;text-decoration-color:#000000;letter-spacing:normal;word-spacing:normal;text-transform:none;direction:ltr;block-progression:tb;writing-mode:lr-tb;baseline-shift:baseline;text-anchor:start;white-space:normal;clip-rule:nonzero;display:inline;overflow:visible;visibility:visible;opacity:1;isolation:auto;mix-blend-mode:normal;color-interpolation:sRGB;color-interpolation-filters:linearRGB;solid-color:#000000;solid-opacity:1;fill:#000000;fill-opacity:1;fill-rule:nonzero;stroke:none;stroke-width:1.5;stroke-linecap:round;stroke-linejoin:round;stroke-miterlimit:4;stroke-dasharray:none;stroke-dashoffset:0;stroke-opacity:1;color-rendering:auto;image-rendering:auto;shape-rendering:auto;text-rendering:auto;enable-background:accumulate" d="m 57.135202,998.58358 a 0.75008166,0.75008166 0 0 0 -0.636725,0.42383 c -3.137293,6.28589 -9.54013,10.27059 -16.5646,10.30869 -7.024469,0.038 -13.470564,-3.8756 -16.67593,-10.12705 a 0.75008166,0.75008166 0 1 0 -1.333995,0.68361 c 3.461992,6.75194 10.430724,10.98464 18.017737,10.94344 7.587015,-0.041 14.510126,-4.3496 17.898597,-11.13876 a 0.75008166,0.75008166 0 0 0 -0.705084,-1.09376 z"/><path style="color:#000000;font-style:normal;font-variant:normal;font-weight:normal;font-stretch:normal;font-size:medium;line-height:normal;font-family:sans-serif;text-indent:0;text-align:start;text-decoration:none;text-decoration-line:none;text-decoration-style:solid;text-decoration-color:#000000;letter-spacing:normal;word-spacing:normal;text-transform:none;direction:ltr;block-progression:tb;writing-mode:lr-tb;baseline-shift:baseline;text-anchor:start;white-space:normal;clip-rule:nonzero;display:inline;overflow:visible;visibility:visible;opacity:1;isolation:auto;mix-blend-mode:normal;color-interpolation:sRGB;color-interpolation-filters:linearRGB;solid-color:#000000;solid-opacity:1;fill:#000000;fill-opacity:1;fill-rule:nonzero;stroke:none;stroke-width:1.5;stroke-linecap:round;stroke-linejoin:round;stroke-miterlimit:4;stroke-dasharray:none;stroke-dashoffset:0;stroke-opacity:1;color-rendering:auto;image-rendering:auto;shape-rendering:auto;text-rendering:auto;enable-background:accumulate" d="m 65.521994,1014.4333 c -2.417934,0.1852 -4.249545,2.3385 -4.072301,4.8009 0.177918,2.449 2.307872,4.3078 4.728557,4.125 a 0.75019793,0.75019793 0 0 0 -0.113282,-1.4961 c -1.596604,0.1206 -2.999502,-1.0911 -3.119169,-2.7382 -0.120219,-1.6702 1.096233,-3.0786 2.693384,-3.1993 a 0.75008166,0.75008166 0 0 0 0.0059,0 c 1.28486,-0.1053 2.452423,0.6468 2.917995,1.9024 a 0.75008166,0.75008166 0 1 0 1.406263,-0.5215 c -0.687546,-1.8543 -2.49601,-3.0351 -4.447306,-2.8751 z"/><path style="color:#000000;font-style:normal;font-variant:normal;font-weight:normal;font-stretch:normal;font-size:medium;line-height:normal;font-family:sans-serif;text-indent:0;text-align:start;text-decoration:none;text-decoration-line:none;text-decoration-style:solid;text-decoration-color:#000000;letter-spacing:normal;word-spacing:normal;text-transform:none;direction:ltr;block-progression:tb;writing-mode:lr-tb;baseline-shift:baseline;text-anchor:start;white-space:normal;clip-rule:nonzero;display:inline;overflow:visible;visibility:visible;opacity:1;isolation:auto;mix-blend-mode:normal;color-interpolation:sRGB;color-interpolation-filters:linearRGB;solid-color:#000000;solid-opacity:1;fill:#000000;fill-opacity:1;fill-rule:nonzero;stroke:none;stroke-width:1.5;stroke-linecap:round;stroke-linejoin:round;stroke-miterlimit:4;stroke-dasharray:none;stroke-dashoffset:0;stroke-opacity:1;color-rendering:auto;image-rendering:auto;shape-rendering:auto;text-rendering:auto;enable-background:accumulate" d="m 65.545433,1021.865 a 0.75019793,0.75019793 0 1 0 0.113282,1.4961 c 1.591898,-0.1203 2.999483,1.1103 3.119168,2.7578 0.120177,1.6696 -1.09522,3.0778 -2.69143,3.1994 -1.288551,0.09 -2.462265,-0.6693 -2.925808,-1.9043 a 0.75008166,0.75008166 0 1 0 -1.404309,0.5273 c 0.689337,1.8366 2.490721,3.01 4.437539,2.8731 a 0.75008166,0.75008166 0 0 0 0.0039,0 c 2.420162,-0.1828 4.253567,-2.3389 4.076209,-4.8029 -0.177888,-2.4487 -2.303167,-4.3298 -4.728558,-4.1465 z"/><path style="color:#000000;font-style:normal;font-variant:normal;font-weight:normal;font-stretch:normal;font-size:medium;line-height:normal;font-family:sans-serif;text-indent:0;text-align:start;text-decoration:none;text-decoration-line:none;text-decoration-style:solid;text-decoration-color:#000000;letter-spacing:normal;word-spacing:normal;text-transform:none;direction:ltr;block-progression:tb;writing-mode:lr-tb;baseline-shift:baseline;text-anchor:start;white-space:normal;clip-rule:nonzero;display:inline;overflow:visible;visibility:visible;opacity:1;isolation:auto;mix-blend-mode:normal;color-interpolation:sRGB;color-interpolation-filters:linearRGB;solid-color:#000000;solid-opacity:1;fill:#000000;fill-opacity:1;fill-rule:nonzero;stroke:none;stroke-width:1.5;stroke-linecap:round;stroke-linejoin:round;stroke-miterlimit:4;stroke-dasharray:none;stroke-dashoffset:0;stroke-opacity:1;color-rendering:auto;image-rendering:auto;shape-rendering:auto;text-rendering:auto;enable-background:accumulate" d="m 65.721215,1029.3437 a 0.75008166,0.75008166 0 0 0 -0.74024,0.7597 l 0,4.9688 a 0.75008166,0.75008166 0 1 0 1.500013,0 l 0,-4.9688 a 0.75008166,0.75008166 0 0 0 -0.759773,-0.7597 z"/><path style="color:#000000;font-style:normal;font-variant:normal;font-weight:normal;font-stretch:normal;font-size:medium;line-height:normal;font-family:sans-serif;text-indent:0;text-align:start;text-decoration:none;text-decoration-line:none;text-decoration-style:solid;text-decoration-color:#000000;letter-spacing:normal;word-spacing:normal;text-transform:none;direction:ltr;block-progression:tb;writing-mode:lr-tb;baseline-shift:baseline;text-anchor:start;white-space:normal;clip-rule:nonzero;display:inline;overflow:visible;visibility:visible;opacity:1;isolation:auto;mix-blend-mode:normal;color-interpolation:sRGB;color-interpolation-filters:linearRGB;solid-color:#000000;solid-opacity:1;fill:#000000;fill-opacity:1;fill-rule:nonzero;stroke:none;stroke-width:1.5;stroke-linecap:round;stroke-linejoin:round;stroke-miterlimit:4;stroke-dasharray:none;stroke-dashoffset:0;stroke-opacity:1;color-rendering:auto;image-rendering:auto;shape-rendering:auto;text-rendering:auto;enable-background:accumulate" d="m 65.721215,1009.4313 a 0.75008166,0.75008166 0 0 0 -0.74024,0.7618 l 0,4.9687 a 0.75008166,0.75008166 0 1 0 1.500013,0 l 0,-4.9687 a 0.75008166,0.75008166 0 0 0 -0.759773,-0.7618 z"/><path style="color:#000000;font-style:normal;font-variant:normal;font-weight:normal;font-stretch:normal;font-size:medium;line-height:normal;font-family:sans-serif;text-indent:0;text-align:start;text-decoration:none;text-decoration-line:none;text-decoration-style:solid;text-decoration-color:#000000;letter-spacing:normal;word-spacing:normal;text-transform:none;direction:ltr;block-progression:tb;writing-mode:lr-tb;baseline-shift:baseline;text-anchor:start;white-space:normal;clip-rule:nonzero;display:inline;overflow:visible;visibility:visible;opacity:1;isolation:auto;mix-blend-mode:normal;color-interpolation:sRGB;color-interpolation-filters:linearRGB;solid-color:#000000;solid-opacity:1;fill:#000000;fill-opacity:1;fill-rule:nonzero;stroke:none;stroke-width:1.5;stroke-linecap:round;stroke-linejoin:round;stroke-miterlimit:4;stroke-dasharray:none;stroke-dashoffset:0;stroke-opacity:1;color-rendering:auto;image-rendering:auto;shape-rendering:auto;text-rendering:auto;enable-background:accumulate" d="m 77.055301,1014.1267 a 0.75008166,0.75008166 0 0 0 -0.65235,0.4199 l -2.52932,5.1778 a 0.75008166,0.75008166 0 1 0 1.347668,0.6582 l 1.105479,-2.2637 0,12.2697 a 0.75008166,0.75008166 0 1 0 1.500014,0 l 0,-15.5119 a 0.75008166,0.75008166 0 0 0 -0.771491,-0.75 z"/><path style="color:#000000;font-style:normal;font-variant:normal;font-weight:normal;font-stretch:normal;font-size:medium;line-height:normal;font-family:sans-serif;text-indent:0;text-align:start;text-decoration:none;text-decoration-line:none;text-decoration-style:solid;text-decoration-color:#000000;letter-spacing:normal;word-spacing:normal;text-transform:none;direction:ltr;block-progression:tb;writing-mode:lr-tb;baseline-shift:baseline;text-anchor:start;white-space:normal;clip-rule:nonzero;display:inline;overflow:visible;visibility:visible;opacity:1;isolation:auto;mix-blend-mode:normal;color-interpolation:sRGB;color-interpolation-filters:linearRGB;solid-color:#000000;solid-opacity:1;fill:#000000;fill-opacity:1;fill-rule:nonzero;stroke:none;stroke-width:1.5;stroke-linecap:round;stroke-linejoin:round;stroke-miterlimit:4;stroke-dasharray:none;stroke-dashoffset:0;stroke-opacity:1;color-rendering:auto;image-rendering:auto;shape-rendering:auto;text-rendering:auto;enable-background:accumulate" d="m 77.09241,1014.1169 a 0.75008166,0.75008166 0 0 0 -0.689459,1.0898 l 2.548851,5.1779 a 0.75008166,0.75008166 0 1 0 1.345714,-0.6621 l -2.546897,-5.1779 a 0.75008166,0.75008166 0 0 0 -0.658209,-0.4277 z"/></g><text x="0" y="115" fill="#000000" font-size="5px" font-weight="bold" font-family="'Helvetica Neue', Helvetica, Arial-Unicode, Arial, Sans-serif">Created by P Thanga Vignesh</text><text x="0" y="120" fill="#000000" font-size="5px" font-weight="bold" font-family="'Helvetica Neue', Helvetica, Arial-Unicode, Arial, Sans-serif">from the Noun Project</text></svg>